<svg width="25" height="36" viewBox="0 0 25 36" fill="none" xmlns="http://www.w3.org/2000/svg">
<path d="M13.5626 0L0 5.06201V30.5476L13.6591 35.1021L25 33.5898L24.9971 32.7151V1.73024L13.5626 0ZM12.4773 1.44942L12.4481 33.5503L0.764933 29.8543L0.726906 5.79769L12.4773 1.44942ZM14.4504 1.61616L23.8109 2.88715V32.4153L14.4445 33.5795L14.4504 1.61616ZM14.933 2.15147L14.9433 33.0691L23.3502 32.0058V3.25864L14.933 2.15147ZM11.7855 2.53613L7.01749 4.25613V11.4579L11.8133 10.8407L11.7855 2.53613ZM6.50559 4.51501L1.18616 6.2511V12.1351L6.53923 11.5383L6.50559 4.51501ZM9.59165 4.53694C9.8727 4.54297 10.1403 4.65842 10.3376 4.85871C11.1142 5.59293 11.1903 6.92096 10.9811 7.89504C10.7939 8.76675 10.1957 10.0553 9.11192 9.95875C8.91886 9.9412 8.53419 9.84321 8.42596 9.656L8.42304 9.65307L8.53712 9.35324C8.95396 9.53168 9.33569 9.66185 9.76423 9.41175C10.1781 9.16896 10.4531 8.67607 10.6096 8.23729C10.9182 7.37729 10.9182 6.21599 10.3595 5.45837C9.6794 4.53694 8.71263 5.0196 8.25045 5.8796C8.05593 6.31387 7.93247 6.77659 7.88481 7.25004C7.87084 7.46533 7.87918 7.68148 7.90967 7.89504C7.93892 8.14076 8.06617 8.39379 8.03545 8.64243C8.02668 8.71848 7.98134 8.76675 7.89651 8.78137C7.39192 7.93307 7.66688 6.57579 8.04569 5.73773C8.31627 5.13807 8.94518 4.53109 9.59165 4.53694ZM4.34973 6.00392L3.77347 7.60984L4.35412 7.29831L2.67068 11.1815L2.66776 11.1786L3.40198 8.38794L2.9281 8.61464L3.58041 6.22477L4.34973 6.00392ZM9.34593 6.2979C9.39883 6.29658 9.45147 6.30552 9.50097 6.32423C10.1211 6.56117 9.93097 7.61715 9.66185 8.03107C9.51998 8.25192 9.27865 8.26069 9.04171 8.26069V8.26508C8.94518 7.91406 9.38981 7.67419 9.48927 7.40508C9.54777 7.24712 9.48634 7.11402 9.42345 6.98093C9.27426 6.90341 9.15141 6.94875 9.09729 7.10232C9.01588 7.34803 8.88664 7.5752 8.71702 7.77073C8.66383 7.56184 8.65404 7.34426 8.68825 7.13144C8.72247 6.91862 8.79995 6.71507 8.91593 6.53338C8.96467 6.46381 9.02885 6.40648 9.10345 6.36588C9.17806 6.32528 9.26105 6.30105 9.34593 6.2979ZM9.14409 6.51436C9.08559 6.51436 9.03733 6.59042 9.03733 6.6811C9.03733 6.77324 9.08559 6.84783 9.14409 6.84783C9.2026 6.84783 9.2494 6.77178 9.2494 6.6811C9.2494 6.58749 9.20114 6.51436 9.14409 6.51436ZM9.55655 6.51436C9.49804 6.51436 9.45124 6.59042 9.45124 6.6811C9.45124 6.77324 9.4995 6.84783 9.55655 6.84783C9.61505 6.84783 9.66331 6.77178 9.66331 6.6811C9.66331 6.58749 9.61505 6.51436 9.55655 6.51436ZM8.88375 6.90049C8.82525 6.90049 8.77845 6.978 8.77845 7.06868C8.77845 7.16083 8.82671 7.23542 8.88522 7.23542C8.94372 7.23542 8.99052 7.1579 8.99052 7.06868C8.99052 6.97508 8.9408 6.90049 8.88375 6.90049ZM9.72182 6.98824C9.66331 6.98824 9.61651 7.06576 9.61651 7.15644C9.61651 7.24858 9.66478 7.32317 9.72182 7.32317C9.78032 7.32317 9.82859 7.24566 9.82859 7.15644C9.82859 7.06283 9.78032 6.98824 9.72182 6.98824ZM9.14263 7.48406H9.14556C9.16018 7.50453 9.16018 7.52501 9.15141 7.54402C8.8662 8.18756 8.58539 8.83256 8.29872 9.48049C8.27239 9.46879 8.2563 9.46879 8.24753 9.46001C8.15242 9.3385 8.07328 9.2053 8.01205 9.06365C7.98426 9.00807 8.01498 8.95396 8.04862 8.90862L9.03879 7.58644C9.06497 7.5452 9.09993 7.51024 9.14117 7.48406H9.14263ZM9.58872 7.506C9.53022 7.506 9.48342 7.58351 9.48342 7.67273C9.48342 7.76634 9.53168 7.84093 9.58872 7.84093C9.64869 7.84093 9.69549 7.76341 9.69549 7.67273C9.69549 7.58059 9.64722 7.506 9.58872 7.506ZM9.32546 7.83215C9.26695 7.83215 9.21869 7.90821 9.21869 7.99889C9.21869 8.09249 9.26695 8.16562 9.32546 8.16562C9.38396 8.16562 9.43076 8.08957 9.43076 7.99889C9.43076 7.90528 9.3825 7.83215 9.32546 7.83215ZM15.5926 8.26362L22.8939 8.49178L22.8968 9.07828L15.5926 8.99052V8.26362ZM11.7314 11.6276L7.01457 12.2126L7.00579 22.3688L11.6948 22.5151L11.7314 11.6276ZM6.52314 12.2623L1.21687 12.7581L1.25344 22.0324L6.50997 22.3352L6.52314 12.2623ZM19.5928 13.0521C20.0755 13.058 20.5406 13.4719 20.8097 14.1959L22.809 14.2076L22.8573 16.0782L20.8009 16.166C20.4689 17.6871 18.8118 17.5452 18.4344 16.2508L15.6438 16.3444L15.638 14.2895L18.3379 14.19C18.6728 13.3973 19.1394 13.0448 19.5928 13.0521ZM19.6191 13.6518C19.3712 13.6518 19.1334 13.8166 18.9579 14.11C18.7824 14.4034 18.6835 14.8014 18.6831 15.2168C18.683 15.4228 18.7071 15.6268 18.7541 15.8172C18.8011 16.0076 18.87 16.1806 18.9569 16.3264C19.0439 16.4721 19.1471 16.5877 19.2607 16.6666C19.3744 16.7455 19.4961 16.7861 19.6191 16.7861C19.8674 16.7861 20.1055 16.6209 20.281 16.3269C20.4566 16.0328 20.5552 15.634 20.5552 15.2182C20.5552 14.8024 20.4566 14.4036 20.281 14.1095C20.1055 13.8155 19.8674 13.6518 19.6191 13.6518ZM3.00562 14.1374L3.54385 14.6039L5.90885 14.5191L5.92348 14.7063L3.48096 14.797L2.8813 14.2807L3.00562 14.1374ZM2.64582 14.4518C2.71293 14.4489 2.77844 14.4728 2.82795 14.5182C2.87746 14.5636 2.90691 14.6268 2.90982 14.6939C2.91273 14.761 2.88886 14.8265 2.84346 14.876C2.79807 14.9255 2.73487 14.955 2.66776 14.9579C2.61788 14.9595 2.56864 14.9464 2.52622 14.9201C2.4838 14.8938 2.4501 14.8555 2.42936 14.8102L1.74633 14.8394L1.73755 14.6522L2.42058 14.6229C2.43715 14.5754 2.46735 14.5339 2.50741 14.5034C2.54747 14.473 2.59561 14.4551 2.64582 14.4518ZM9.93682 14.8394C10.0158 14.9974 9.93389 15.2884 10.0992 15.3264C10.3229 15.3791 10.3537 15.4361 10.4078 15.6453C10.4326 15.7389 10.3961 15.7842 10.4926 15.8384C10.5979 15.8983 10.7222 15.8808 10.7252 16.0226C10.7281 16.2172 10.6432 16.1894 10.4955 16.1894C10.4414 16.1894 10.4224 16.2918 10.4195 16.3312C10.4078 16.4746 10.4326 16.5038 10.5716 16.5433C10.75 16.5945 10.7178 16.6428 10.7178 16.8066C10.7178 16.8885 10.7339 16.8432 10.6257 16.8651C10.4531 16.8973 10.4136 16.8739 10.4224 17.0699C10.4356 17.3053 10.8275 17.1137 10.7149 17.4501C10.6681 17.5964 10.4297 17.4838 10.4297 17.611C10.4297 17.7719 10.3961 17.845 10.5921 17.8596C10.7851 17.8743 10.7734 18.1346 10.6038 18.1931C10.5014 18.2297 10.4648 18.1902 10.4282 18.3131C10.3931 18.4374 10.3961 18.5675 10.3507 18.6933C10.1664 18.8279 9.99971 18.6407 9.99971 18.9464C9.99971 19.0283 9.98216 19.0882 9.96753 19.1657C9.93974 19.3179 9.90025 19.1877 9.79202 19.2213C9.76277 19.1848 9.79202 18.9829 9.79202 18.9347C9.79202 18.7913 9.74376 18.7591 9.57995 18.7708C9.57117 18.9464 9.57409 19.1336 9.43369 19.2608C9.34593 19.2023 9.31229 19.1145 9.30498 19.0151C9.2962 18.8191 9.31083 18.8133 9.10899 18.765C9.06879 18.9076 9.05394 19.0561 9.06511 19.2038C8.90716 19.2827 8.88229 19.04 8.88229 18.9434C8.88229 18.8615 8.91593 18.7708 8.81355 18.7401C8.71117 18.7138 8.6746 18.765 8.67168 18.8571C8.66583 19.0429 8.65705 19.1248 8.51079 19.2272C8.45229 19.0648 8.50202 18.7825 8.31188 18.7299C8.09981 18.6772 8.07348 18.5222 8.07055 18.3204C8.06617 18.0995 7.80144 18.3101 7.80144 18.0717C7.80144 18.0483 7.78243 17.924 7.80144 17.905C7.88919 17.8421 7.97695 17.9416 8.05739 17.9079C8.09688 17.7997 8.11151 17.6359 7.9945 17.6081C7.87311 17.5818 7.75902 17.5671 7.78535 17.4267C7.81899 17.2541 7.78828 17.2644 7.97549 17.2512C8.11882 17.2424 8.06617 17.0947 8.07055 16.9982C7.88188 16.9104 7.80436 17.0216 7.80436 16.7729C7.80436 16.6048 7.7912 16.6194 7.96086 16.6194C8.10712 16.6194 8.06324 16.5682 8.06324 16.4292C8.06324 16.2742 7.78535 16.4102 7.77365 16.1982C7.7678 16.1075 7.8029 16.0285 7.89066 15.9963C8.04569 15.9349 8.06324 15.9261 8.07055 15.7594C8.07933 15.518 8.23875 15.4903 8.43182 15.3937L8.42889 15.3908C8.42596 15.2358 8.42889 15.088 8.52542 14.9608C8.70678 14.9667 8.6746 15.2533 8.67753 15.3937C8.9876 15.5473 8.82379 15.0661 8.98467 14.9301C9.2143 14.9067 8.96712 15.4142 9.19382 15.4084C9.34154 15.4054 9.31083 15.3352 9.30791 15.2065C9.30498 15.088 9.32107 14.9696 9.42345 14.895C9.67209 14.9886 9.44685 15.4449 9.76131 15.3718C9.76131 15.1787 9.73205 14.9433 9.93682 14.8394ZM5.56807 15.0295C5.60135 15.0284 5.63453 15.0338 5.66569 15.0456C5.69685 15.0573 5.72536 15.0751 5.74958 15.098C5.7738 15.1209 5.79324 15.1483 5.80677 15.1787C5.8203 15.2092 5.82766 15.242 5.82841 15.2753C5.82958 15.3085 5.82413 15.3417 5.81238 15.3729C5.80063 15.404 5.7828 15.4326 5.75995 15.4568C5.73709 15.481 5.70965 15.5004 5.67923 15.514C5.6488 15.5275 5.61599 15.5348 5.5827 15.5356C5.53416 15.5371 5.48623 15.5244 5.44471 15.4993C5.40318 15.4741 5.36983 15.4374 5.34868 15.3937L4.58375 15.4157C4.56154 15.4693 4.52136 15.5136 4.47008 15.5409C4.41881 15.5681 4.35965 15.5767 4.30274 15.5651C4.24583 15.5535 4.19473 15.5225 4.15821 15.4773C4.12168 15.4322 4.10201 15.3757 4.10256 15.3177C4.10139 15.2845 4.10679 15.2514 4.11845 15.2204C4.13011 15.1893 4.1478 15.1609 4.1705 15.1367C4.19321 15.1125 4.22047 15.093 4.25073 15.0794C4.28099 15.0658 4.31364 15.0583 4.34681 15.0573V15.0544C4.40037 15.0534 4.45289 15.0693 4.49697 15.0997C4.54105 15.1301 4.57447 15.1736 4.59252 15.2241L5.33552 15.2036C5.35214 15.1546 5.3833 15.1118 5.42485 15.081C5.4664 15.0502 5.51636 15.0327 5.56807 15.031V15.0295ZM3.80419 15.3996L5.9615 18.5441L5.80062 18.6436L3.68279 15.5839L1.74925 15.7023L1.7434 15.521L3.80419 15.3996ZM5.99953 15.6292L5.98783 15.9012L5.78892 16.1894C5.81191 16.2342 5.82099 16.2849 5.815 16.3349C5.809 16.385 5.78821 16.4321 5.75528 16.4702V16.4673C5.71124 16.5179 5.64891 16.5489 5.58199 16.5536C5.51507 16.5582 5.44904 16.5361 5.39841 16.4921C5.37355 16.4705 5.35321 16.4441 5.33857 16.4146C5.32394 16.3851 5.31528 16.3529 5.3131 16.32C5.31093 16.2871 5.31528 16.2541 5.3259 16.2229C5.33653 16.1917 5.35321 16.1629 5.37501 16.1382C5.40788 16.1002 5.45135 16.073 5.49983 16.06C5.54831 16.0469 5.59958 16.0487 5.64705 16.0651L5.99953 15.6292ZM4.98011 16.0885C5.02136 16.0871 5.06227 16.0962 5.09908 16.1149C5.13589 16.1335 5.16741 16.1612 5.19072 16.1952C5.25069 16.283 5.25069 16.3927 5.19657 16.4775L5.96736 17.6271L5.97028 17.924L5.043 16.5828C4.99421 16.595 4.94287 16.592 4.89583 16.5742C4.84879 16.5564 4.80829 16.5247 4.77974 16.4834L4.77681 16.4863C4.73883 16.4313 4.72412 16.3636 4.73591 16.2978C4.74769 16.232 4.785 16.1736 4.8397 16.1353C4.88071 16.1059 4.92966 16.0895 4.98011 16.0885ZM3.72813 16.1923C3.76136 16.191 3.79453 16.1962 3.82574 16.2076C3.85696 16.2191 3.8856 16.2366 3.91005 16.2592C3.9345 16.2817 3.95426 16.3089 3.96822 16.339C3.98218 16.3692 3.99006 16.4019 3.9914 16.4351C3.99274 16.4683 3.98753 16.5015 3.97606 16.5327C3.96458 16.5639 3.94707 16.5926 3.92453 16.617C3.90198 16.6415 3.87484 16.6612 3.84466 16.6752C3.81448 16.6891 3.78184 16.697 3.74861 16.6984C3.69857 16.6999 3.64921 16.6865 3.60677 16.6599C3.56434 16.6334 3.53073 16.5948 3.51021 16.5492L1.78289 16.6369L1.77412 16.4497L3.50143 16.362C3.51834 16.3145 3.54886 16.2731 3.58919 16.2429C3.62951 16.2127 3.67785 16.1951 3.72813 16.1923ZM4.25613 17.1912L4.83092 17.9079C4.86873 17.8862 4.91167 17.8751 4.95525 17.8757C5.09419 17.8757 5.20827 17.9898 5.20827 18.1288C5.20789 18.1959 5.18116 18.2602 5.13383 18.3078C5.0865 18.3554 5.02237 18.3825 4.95525 18.3833C4.88787 18.3829 4.82336 18.3559 4.77572 18.3083C4.72807 18.2607 4.70114 18.1961 4.70075 18.1288C4.70075 18.1054 4.70661 18.0805 4.71246 18.0556L4.18446 17.3828L1.8063 17.4414L1.80044 17.2512L4.25613 17.1912ZM2.62242 17.8289H2.62534C2.71164 17.8304 2.78623 17.8757 2.82718 17.9416L4.27807 17.981L4.84848 18.6743C4.88613 18.6521 4.92908 18.6405 4.9728 18.6407C5.11174 18.6407 5.22729 18.7562 5.22729 18.8952C5.2269 18.9625 5.19997 19.027 5.15232 19.0747C5.10468 19.1223 5.04017 19.1493 4.9728 19.1497C4.90542 19.1493 4.84091 19.1223 4.79327 19.0747C4.74563 19.027 4.71869 18.9625 4.71831 18.8952C4.71972 18.8703 4.72414 18.8458 4.73147 18.822L4.20494 18.1712L2.86082 18.1317C2.84779 18.1835 2.81784 18.2295 2.77571 18.2623C2.73358 18.2952 2.68169 18.313 2.62827 18.3131C2.5688 18.3069 2.5137 18.279 2.47353 18.2347C2.43336 18.1904 2.41095 18.1328 2.41059 18.073C2.41023 18.0132 2.43194 17.9554 2.47157 17.9107C2.5112 17.8659 2.56595 17.8373 2.62534 17.8304H2.62242V17.8289ZM1.96864 18.1288C2.0564 18.1288 2.12075 18.1492 2.18803 18.2531C2.38694 18.5646 2.57415 18.8849 2.76429 19.2038C2.8579 19.3603 2.95443 19.5182 3.05096 19.6718C3.1899 19.8956 3.22647 19.9146 3.49266 19.9321C3.68279 19.9453 3.87586 19.9453 4.06892 19.9453C4.26929 19.9453 4.26344 19.7786 4.45358 19.7961C4.61592 19.9511 4.61592 20.1501 4.45358 20.3051C4.27222 20.3168 4.29269 20.1296 4.15667 20.1296H3.57895C3.29082 20.1296 3.20453 20.1925 3.05534 19.9599L2.04031 18.3379H1.79021V18.1361C1.86041 18.1361 1.91891 18.1302 1.97011 18.1302L1.96864 18.1288ZM4.16252 18.626C4.19568 18.6249 4.22875 18.6303 4.25981 18.6419C4.29088 18.6536 4.31933 18.6713 4.34352 18.694C4.36772 18.7167 4.38719 18.744 4.40081 18.7742C4.41442 18.8045 4.42192 18.8371 4.42286 18.8703C4.42403 18.9035 4.41863 18.9365 4.40697 18.9676C4.39531 18.9986 4.37762 19.0271 4.35492 19.0513C4.33221 19.0755 4.30495 19.095 4.27469 19.1086C4.24443 19.1222 4.21178 19.1297 4.17861 19.1306C4.12983 19.1324 4.08159 19.1199 4.03978 19.0947C3.99797 19.0695 3.96439 19.0327 3.94314 18.9888L3.27181 19.0034C3.24807 19.0547 3.20773 19.0965 3.1573 19.1221C3.10687 19.1477 3.04929 19.1556 2.99385 19.1444C2.93842 19.1333 2.88835 19.1038 2.85175 19.0606C2.81514 19.0176 2.79412 18.9634 2.79208 18.9069C2.79091 18.8737 2.79631 18.8406 2.80797 18.8096C2.81963 18.7785 2.83732 18.7501 2.86003 18.7259C2.88273 18.7017 2.90999 18.6822 2.94025 18.6686C2.97051 18.655 3.00316 18.6475 3.03633 18.6465V18.6436C3.08964 18.6429 3.14184 18.6589 3.18563 18.6893C3.22941 18.7197 3.26261 18.7631 3.28058 18.8133L3.92997 18.7986C3.94668 18.7494 3.97807 18.7065 4.0199 18.6756C4.06174 18.6448 4.11202 18.6275 4.16399 18.626H4.16252ZM5.57392 18.8908C5.60854 18.8902 5.6429 18.8968 5.67484 18.9102C5.70677 18.9236 5.73558 18.9434 5.75944 18.9685C5.7833 18.9936 5.80169 19.0234 5.81344 19.0559C5.82519 19.0885 5.83005 19.1232 5.82772 19.1577C5.82538 19.1923 5.81589 19.226 5.79986 19.2566C5.78383 19.2873 5.7616 19.3144 5.73458 19.336C5.70756 19.3577 5.67634 19.3735 5.64289 19.3824C5.60945 19.3914 5.57451 19.3933 5.54028 19.3881L4.78558 20.4996L4.58667 20.5011L5.38086 19.2915C5.35369 19.2547 5.33708 19.2112 5.33282 19.1656C5.32855 19.1201 5.33679 19.0742 5.35665 19.033C5.37651 18.9918 5.40723 18.9567 5.44552 18.9317C5.4838 18.9066 5.5282 18.8925 5.57392 18.8908ZM2.00959 18.9098C2.07054 18.9145 2.12746 18.9421 2.16898 18.987C2.21049 19.0318 2.23355 19.0907 2.23355 19.1518C2.23355 19.213 2.21049 19.2719 2.16898 19.3167C2.12746 19.3616 2.07054 19.3892 2.00959 19.3939C1.94865 19.3892 1.89173 19.3616 1.85021 19.3167C1.8087 19.2719 1.78563 19.213 1.78563 19.1518C1.78563 19.0907 1.8087 19.0318 1.85021 18.987C1.89173 18.9421 1.94865 18.9145 2.00959 18.9098ZM2.54198 19.7332C2.60779 19.7332 2.67215 19.7581 2.72187 19.8078C2.7458 19.8311 2.76482 19.859 2.7778 19.8897C2.79079 19.9205 2.79748 19.9536 2.79748 19.987C2.79748 20.0204 2.79079 20.0534 2.7778 20.0842C2.76482 20.115 2.7458 20.1428 2.72187 20.1661C2.6987 20.19 2.67096 20.209 2.64031 20.222C2.60966 20.235 2.57672 20.2416 2.54344 20.2416C2.51016 20.2416 2.47722 20.235 2.44657 20.222C2.41592 20.209 2.38818 20.19 2.365 20.1661C2.34776 20.1477 2.33301 20.127 2.32113 20.1047L2.10613 20.0959L1.86772 20.4294L1.72878 20.2978L2.0213 19.9087L2.30211 19.9175C2.31391 19.8764 2.33549 19.8388 2.365 19.8078C2.38811 19.7844 2.41567 19.7659 2.44607 19.7533C2.47647 19.7407 2.50908 19.7344 2.54198 19.7347V19.7332ZM5.69678 19.9321C5.78453 19.9336 5.88545 19.9511 5.94542 19.9511C5.95419 20.036 5.96004 20.112 5.90154 20.1866C5.7977 20.1896 5.69678 20.1442 5.5944 20.1354L5.4145 20.3841C5.4496 20.4616 5.56514 20.3885 5.58562 20.4923C5.55637 20.6166 5.3165 20.5069 5.2346 20.5201C5.19365 20.3885 5.48909 20.0565 5.56514 19.9497C5.60715 19.934 5.65214 19.928 5.69678 19.9321ZM18.0878 20.3958V31.7191L15.9641 31.9736L15.9583 20.5099L18.0878 20.3958ZM1.29293 22.7622L1.28708 25.8702L3.76177 26.2081L3.7764 22.9407L1.29293 22.7622ZM4.14205 22.9495V30.0635L8.42304 31.3535V23.2303L4.14205 22.9495ZM8.9876 23.2771L9.00661 31.6796L9.29913 31.7703C9.51852 31.0171 9.91341 31.3081 9.93974 31.9751L10.5043 32.1433C10.5102 31.3491 11.1961 31.6343 11.082 32.3144L11.6042 32.5089L11.5866 23.4584L11.202 23.4336C11.2868 24.2687 10.4531 24.2599 10.5862 23.3941L9.97192 23.3546C10.0699 24.1576 9.22892 24.1356 9.3591 23.3034L8.9876 23.2771ZM2.23922 23.6208L2.6429 24.5086L2.89153 24.0552L3.47072 25.3671L1.58106 25.0746L2.23922 23.6208ZM3.27766 23.6398C3.41075 23.6398 3.51606 23.7451 3.51606 23.8782C3.51645 23.9097 3.51056 23.9409 3.49873 23.9701C3.48691 23.9993 3.46939 24.0258 3.44719 24.0482C3.425 24.0705 3.39857 24.0882 3.36946 24.1002C3.34035 24.1122 3.30914 24.1183 3.27766 24.1181C3.24617 24.1183 3.21496 24.1122 3.18585 24.1002C3.15674 24.0882 3.13032 24.0705 3.10812 24.0482C3.08593 24.0258 3.06841 23.9993 3.05658 23.9701C3.04476 23.9409 3.03887 23.9097 3.03926 23.8782C3.03926 23.7466 3.14456 23.6398 3.27766 23.6398ZM9.27865 24.3682L11.3292 24.5832V26.6045L9.27865 26.3046V24.3682ZM6.00246 24.396C6.2628 24.4135 6.50998 24.4662 6.71035 24.6563C7.16083 25.0863 6.36225 25.9185 6.72205 26.4231C7.04528 26.1116 7.03943 25.724 7.28368 25.3949C7.52647 25.7064 7.73709 26.3324 7.6976 26.7288C7.48991 26.9803 7.32317 27.1237 6.82443 27.1588C6.83906 27.2699 6.77032 27.3767 6.80103 27.5069C7.06722 27.7906 7.35974 27.7453 7.71076 27.7248C7.75903 27.9734 7.50746 28.7413 7.32025 28.9256C6.93998 28.753 6.74399 28.3844 6.53191 28.0451C6.45909 28.097 6.39407 28.1591 6.33885 28.2294C6.39004 28.6199 6.88293 29.1157 6.81858 29.4609C6.6548 29.5474 6.46891 29.5831 6.28474 29.5633C6.09753 29.5369 6.02147 29.4346 5.97759 29.2342C5.87667 28.791 6.07266 28.244 5.6997 27.9266C5.51688 28.2864 5.56807 28.6843 5.5198 29.0748C5.22729 29.0016 5.01521 28.4166 4.95817 28.1665C5.00936 27.8667 5.16586 27.6458 5.34722 27.4133C5.43205 27.3036 5.45984 27.1939 5.40572 27.0681C5.38378 27.0198 5.38671 26.9584 5.34429 26.9189C5.08103 26.9643 4.92453 27.1676 4.74463 27.3431C4.53987 27.131 4.58667 26.3339 4.74902 26.0999C4.86882 26.0804 4.99135 26.0859 5.10891 26.1161C5.22646 26.1463 5.33648 26.2006 5.43205 26.2754C5.59293 26.1174 5.60171 25.9638 5.45984 25.8C5.35014 25.6757 5.01521 25.5309 4.95525 25.4037C4.90698 25.2135 5.26239 24.57 5.47739 24.5802C5.71286 24.9283 5.85181 25.3218 5.93079 25.7328C6.0127 25.7664 6.08436 25.7971 6.17943 25.7781C6.22623 25.3101 6.12093 24.8625 5.97321 24.4237C5.98783 24.4091 5.99661 24.396 6.00246 24.396ZM1.2783 26.3046V29.4053L3.7764 30.0152L3.80419 26.6747L1.2783 26.3046ZM9.28158 26.663L11.3292 26.992V29.0324L9.28158 28.5936V26.663ZM2.55368 27.1017L2.57415 29.1464L2.08126 28.5146L1.64102 28.4181V27.5434L2.05493 27.6034L2.55368 27.1017ZM3.13579 27.2407C3.14219 27.2411 3.14855 27.2421 3.1548 27.2436C3.20892 27.3679 3.27181 27.4952 3.30837 27.6312C3.45902 28.206 3.45902 28.7618 3.13579 29.3044L3.13286 29.3015C3.07436 29.1888 3.09045 29.104 3.12994 29.0046C3.22354 28.7588 3.30837 28.5073 3.29082 28.2426C3.27921 28.0105 3.23185 27.7816 3.15041 27.5639C3.1151 27.474 3.08194 27.3833 3.05096 27.2919C3.0729 27.2597 3.09483 27.2378 3.13579 27.2407ZM2.92664 27.4528C2.95589 27.4542 2.96759 27.4732 2.97636 27.4922C3.03926 27.621 3.0846 27.7511 3.11239 27.8945C3.14164 28.0597 3.12701 28.2235 3.13871 28.3874C3.14749 28.4927 3.11531 28.5965 3.09922 28.696C3.09109 28.7559 3.06916 28.8131 3.03515 28.8631C3.00114 28.9131 2.95598 28.9545 2.90324 28.9841V28.987H2.90031L2.90324 28.9841C2.89446 28.8861 2.93102 28.7983 2.9515 28.7106C2.98075 28.5789 3.02755 28.4444 3.04511 28.3113C3.06997 28.1416 3.01585 27.9793 2.97198 27.814L2.90616 27.5888C2.89446 27.5405 2.88568 27.4952 2.91201 27.4528H2.92664ZM2.74674 27.6897C2.76283 27.6897 2.77745 27.6926 2.795 27.697C2.87755 27.8929 2.91456 28.1049 2.90324 28.3171C2.90031 28.3991 2.8696 28.4722 2.85204 28.5482C2.83742 28.6053 2.79793 28.6389 2.74966 28.6652C2.71017 28.6258 2.72187 28.5907 2.73065 28.5512C2.75551 28.4385 2.77892 28.3303 2.78184 28.2148C2.78915 28.0393 2.73358 27.8754 2.69409 27.7029H2.69116C2.70864 27.6949 2.72753 27.6904 2.74674 27.6897ZM9.28158 28.911L11.3233 29.3761V31.3988L9.28158 30.8357V28.911Z" fill="#FFC466"/>
</svg>
