<svg width="25" height="29" viewBox="0 0 25 29" fill="none" xmlns="http://www.w3.org/2000/svg">
<path d="M20.673 11.5386H19.2307V11.1937C19.7156 10.6453 20.0337 9.96995 20.1477 9.24695C20.2617 8.52395 20.1667 7.78344 19.8741 7.11256C19.5815 6.44168 19.1033 5.86835 18.4958 5.46004C17.8884 5.05173 17.1769 4.82543 16.4452 4.80777C16.1385 3.73687 15.5685 2.75982 14.7872 1.9658C14.1766 1.34087 13.4467 0.844875 12.6409 0.507209C11.8351 0.169543 10.9697 -0.00292139 10.096 3.74355e-05C8.29852 3.74355e-05 6.62363 0.738025 5.34838 2.08419C4.72248 1.88477 4.0519 1.87288 3.41932 2.04998C2.78675 2.22709 2.21984 2.58546 1.78849 3.0809C1.35714 3.57633 1.08021 4.18717 0.991854 4.83811C0.903497 5.48904 1.00757 6.1516 1.29125 6.74409C0.836017 7.14813 0.483333 7.65458 0.262268 8.22169C0.0412038 8.78881 -0.0419107 9.40034 0.0197761 10.0059C0.0814629 10.6114 0.286185 11.1936 0.617065 11.7045C0.947946 12.2154 1.39551 12.6403 1.92286 12.9443V25.481C1.92382 26.3733 2.27869 27.2288 2.90963 27.8597C3.54056 28.4906 4.39601 28.8455 5.28828 28.8465H15.8653C16.7576 28.8455 17.613 28.4906 18.244 27.8597C18.8749 27.2288 19.2298 26.3733 19.2307 25.481V25.0003H20.673C21.8202 24.999 22.9201 24.5427 23.7313 23.7315C24.5424 22.9203 24.9987 21.8205 25 20.6733V15.8656C24.9987 14.7184 24.5424 13.6185 23.7313 12.8073C22.9201 11.9962 21.8202 11.5399 20.673 11.5386ZM7.69215 24.0387C7.69215 24.2937 7.59084 24.5383 7.41052 24.7186C7.23019 24.899 6.98562 25.0003 6.7306 25.0003C6.47558 25.0003 6.23101 24.899 6.05068 24.7186C5.87036 24.5383 5.76905 24.2937 5.76905 24.0387V14.4232C5.76905 14.1682 5.87036 13.9237 6.05068 13.7433C6.23101 13.563 6.47558 13.4617 6.7306 13.4617C6.98562 13.4617 7.23019 13.563 7.41052 13.7433C7.59084 13.9237 7.69215 14.1682 7.69215 14.4232V24.0387ZM11.5383 24.0387C11.5383 24.2937 11.437 24.5383 11.2567 24.7186C11.0764 24.899 10.8318 25.0003 10.5768 25.0003C10.3218 25.0003 10.0772 24.899 9.89687 24.7186C9.71655 24.5383 9.61524 24.2937 9.61524 24.0387V14.4232C9.61524 14.1682 9.71655 13.9237 9.89687 13.7433C10.0772 13.563 10.3218 13.4617 10.5768 13.4617C10.8318 13.4617 11.0764 13.563 11.2567 13.7433C11.437 13.9237 11.5383 14.1682 11.5383 14.4232V24.0387ZM15.3845 24.0387C15.3845 24.2937 15.2832 24.5383 15.1029 24.7186C14.9226 24.899 14.678 25.0003 14.423 25.0003C14.168 25.0003 13.9234 24.899 13.7431 24.7186C13.5627 24.5383 13.4614 24.2937 13.4614 24.0387V14.4232C13.4614 14.1682 13.5627 13.9237 13.7431 13.7433C13.9234 13.563 14.168 13.4617 14.423 13.4617C14.678 13.4617 14.9226 13.563 15.1029 13.7433C15.2832 13.9237 15.3845 14.1682 15.3845 14.4232V24.0387ZM16.3461 10.5771C15.8455 10.5771 15.1111 10.2658 14.7421 9.89736C14.5619 9.71701 14.3174 9.61563 14.0624 9.61551H6.7306C6.53362 9.61595 6.34152 9.67689 6.18029 9.79007C6.01907 9.90325 5.89649 10.0632 5.82915 10.2483C5.41869 11.3709 4.41087 11.5386 3.84596 11.5386C3.33592 11.5386 2.84678 11.336 2.48612 10.9753C2.12547 10.6147 1.92286 10.1255 1.92286 9.61551C1.92286 9.10547 2.12547 8.61633 2.48612 8.25568C2.84678 7.89503 3.33592 7.69242 3.84596 7.69242C3.85137 7.69242 4.39404 7.71285 4.83154 8.04098C4.93256 8.11674 5.04751 8.17186 5.16983 8.2032C5.29216 8.23454 5.41945 8.24148 5.54446 8.22362C5.66946 8.20576 5.78972 8.16346 5.89838 8.09913C6.00703 8.03479 6.10195 7.94969 6.17771 7.84867C6.25347 7.74765 6.3086 7.6327 6.33994 7.51038C6.37128 7.38806 6.37821 7.26076 6.36036 7.13576C6.3425 7.01075 6.30019 6.89049 6.23586 6.78184C6.17153 6.67318 6.08642 6.57826 5.9854 6.5025C5.36238 6.04819 4.61668 5.79264 3.84596 5.76932C3.56288 5.76949 3.28069 5.80114 3.0046 5.86367C2.90919 5.64425 2.86987 5.40453 2.89018 5.16612C2.91049 4.92771 2.9898 4.6981 3.12095 4.49797C3.2521 4.29784 3.43098 4.13349 3.64148 4.01972C3.85197 3.90594 4.08746 3.84632 4.32673 3.84623C4.55389 3.84514 4.77804 3.89821 4.98058 4.00105C5.18313 4.1039 5.35825 4.25354 5.49141 4.43758C5.59977 4.58705 5.6945 4.74594 5.77446 4.91234C5.80055 5.15739 5.91973 5.38307 6.1074 5.54279C6.29507 5.7025 6.53689 5.78407 6.78296 5.77066C7.02903 5.75724 7.26055 5.64986 7.42973 5.47068C7.59892 5.2915 7.69286 5.05421 7.69215 4.80777C7.69215 4.40092 7.4752 3.89611 7.04551 3.30536C7.01786 3.2675 6.98541 3.23024 6.95837 3.19358C7.83578 2.37025 8.93254 1.92313 10.096 1.92313C10.7143 1.92135 11.3267 2.04373 11.8969 2.28302C12.467 2.52231 12.9833 2.87364 13.4152 3.31617C13.9553 3.87034 14.354 4.5464 14.5776 5.28721C14.8013 6.02801 14.8432 6.81177 14.7 7.57222C14.6764 7.69629 14.6775 7.82379 14.7031 7.94744C14.7288 8.0711 14.7786 8.18848 14.8496 8.2929C14.9207 8.39731 15.0116 8.48671 15.1172 8.55598C15.2228 8.62525 15.341 8.67305 15.4651 8.69663C15.5245 8.7078 15.5849 8.71343 15.6453 8.71346C15.8689 8.71323 16.0854 8.63511 16.2576 8.49252C16.4298 8.34994 16.5469 8.15181 16.5889 7.9322C16.6621 7.54736 16.7015 7.15684 16.7067 6.76512C17.1767 6.85505 17.5963 7.11698 17.8835 7.49976C18.1707 7.88253 18.3049 8.35864 18.2598 8.83506C18.2148 9.31149 17.9937 9.75399 17.6398 10.0761C17.2859 10.3983 16.8246 10.5769 16.3461 10.5771ZM23.0769 20.6733C23.0769 21.3109 22.8236 21.9223 22.3728 22.3731C21.922 22.8239 21.3106 23.0772 20.673 23.0772H19.2307V13.4617H20.673C21.3106 13.4617 21.922 13.715 22.3728 14.1658C22.8236 14.6166 23.0769 15.228 23.0769 15.8656V20.6733Z" fill="#FFC466"/>
</svg>
