<svg width="25" height="36" viewBox="0 0 25 36" fill="none" xmlns="http://www.w3.org/2000/svg">
<path d="M21.4286 0H3.57143C1.60714 0 0 1.60714 0 3.57143V32.1429C0 34.1071 1.60714 35.6964 3.57143 35.6964L21.4286 35.7143C23.3929 35.7143 25 34.1071 25 32.1429V3.57143C25 1.60714 23.3929 0 21.4286 0ZM12.5 3.57143C14.4643 3.57143 16.0714 5.17857 16.0714 7.14286C16.0714 9.10714 14.4643 10.7143 12.5 10.7143C11.5528 10.7143 10.6444 10.338 9.97462 9.66824C9.30485 8.99847 8.92857 8.09006 8.92857 7.14286C8.92857 6.19566 9.30485 5.28725 9.97462 4.61748C10.6444 3.9477 11.5528 3.57143 12.5 3.57143ZM12.5 32.1429C7.57143 32.1429 3.57143 28.1429 3.57143 23.2143C3.57143 18.2857 7.57143 14.2857 12.5 14.2857C17.4286 14.2857 21.4286 18.2857 21.4286 23.2143C21.4286 28.1429 17.4286 32.1429 12.5 32.1429ZM12.5 17.8571C9.53571 17.8571 7.14286 20.25 7.14286 23.2143C7.14286 26.1786 9.53571 28.5714 12.5 28.5714C15.4643 28.5714 17.8571 26.1786 17.8571 23.2143C17.8571 20.25 15.4643 17.8571 12.5 17.8571Z" fill="#FFC466"/>
</svg>
