<svg width="35" height="35" viewBox="0 0 35 35" fill="none" xmlns="http://www.w3.org/2000/svg">
<path d="M17.5 15.5854L20.407 12.6784C17.6751 9.50394 16.1742 5.45386 16.1777 1.26573C16.1777 0.843821 16.1938 0.417691 16.2233 0C12.4834 0.263539 8.9274 1.72291 6.08057 4.16257L17.5 15.5854ZM22.3216 10.7638L28.9194 4.16257C26.1138 1.7577 22.6181 0.304204 18.9345 0.0109698C18.8999 0.424442 18.8805 0.842977 18.8805 1.26573C18.877 4.73752 20.0952 8.09986 22.3216 10.7638ZM24.2312 12.6733C26.8947 14.9007 30.2571 16.1197 33.7292 16.117C34.1511 16.117 34.573 16.0976 34.984 16.063C34.6913 12.3785 33.2377 8.88178 30.8324 6.07551L24.2312 12.6733ZM10.7688 22.3165C8.10534 20.0891 4.74293 18.87 1.27079 18.8729C0.847758 18.8729 0.429505 18.8909 0.0160325 18.9269C0.308743 22.6114 1.76227 26.1081 4.16763 28.9144L10.7688 22.3165ZM17.5 19.4045L14.593 22.3115C17.3249 25.4859 18.8258 29.536 18.8223 33.7241C18.8223 34.146 18.8062 34.5722 18.7767 34.9899C22.5166 34.7265 26.0727 33.2671 28.9194 30.8273L17.5 19.4045ZM33.7292 18.8172C29.5411 18.8207 25.491 17.3199 22.3165 14.588L19.4096 17.4949L30.8324 28.9144C33.2739 26.0682 34.735 22.5121 35 18.7716C34.5772 18.8012 34.1545 18.8172 33.7292 18.8172ZM15.5904 17.4949L4.16763 6.07551C1.72599 8.92159 0.264792 12.4777 0 16.2182C0.42191 16.1887 0.843821 16.1727 1.26573 16.1727C5.45386 16.1692 9.50394 17.67 12.6784 20.4019L15.5904 17.4949ZM6.08057 30.8273C8.88616 33.2322 12.3819 34.6857 16.0655 34.9789C16.1009 34.5654 16.1189 34.1472 16.1195 33.7241C16.1224 30.252 14.9033 26.8896 12.6759 24.2261L6.08057 30.8273Z" fill="#FFC466"/>
</svg>
