<svg width="1722" height="823" viewBox="0 0 1722 823" fill="none" xmlns="http://www.w3.org/2000/svg">
<g clip-path="url(#clip0_511_104)">
<path d="M630.827 733.954C636.341 735.452 641.666 734.767 646.786 732.776C648.293 733.073 649.933 732.671 651.13 731.129C651.275 730.955 651.385 730.759 651.531 730.584C661.638 725.096 670.832 715.421 678.891 708.974C696.289 695.105 713.957 681.558 731.607 668.01C865.384 565.415 1000.61 464.698 1135.72 363.88C1200.48 315.557 1265.03 266.824 1329.96 218.647C1329.17 220.746 1329.64 223.551 1332.2 224.852C1411.35 265.213 1480.48 321.062 1530.29 395.211C1590.17 484.322 1620.16 589.933 1639.86 694.367C1640.22 696.303 1641.51 697.366 1642.99 697.735C1644.68 698.496 1646.66 698.254 1647.87 696.19C1648.12 695.875 1648.3 695.517 1648.44 695.137C1702.99 596.817 1675.54 474.686 1642.58 373.678C1609.92 273.591 1557.46 179.174 1475.17 111.722C1491.08 91.1707 1462.66 56.9714 1438.65 67.9969C1410.71 80.8166 1384.7 107.138 1360.6 125.608C1289.55 180.062 1218.5 234.516 1147.17 288.648C994.742 404.295 841.368 518.965 691.815 638.332C672.31 653.907 652.466 669.304 634.014 686.128C621.091 697.913 604.45 726.771 630.827 733.954ZM1335.28 216.486C1334.66 216.171 1334.07 216.028 1333.53 216.001C1339.26 211.745 1345.02 207.511 1350.76 203.275C1351.02 203.466 1351.3 203.658 1351.61 203.796C1354.26 205.087 1356.91 206.416 1359.56 207.763C1357.89 207.9 1356.23 208.972 1355.81 211.029C1354.83 215.951 1353.85 220.873 1352.89 225.797C1347.07 222.611 1341.21 219.495 1335.3 216.469L1335.28 216.486ZM1387.18 223.457C1384.28 230.718 1384.19 238.574 1386.76 245.78C1383.79 243.882 1380.77 242.037 1377.75 240.192C1378.21 239.483 1378.39 238.603 1378.15 237.536C1376.64 230.888 1376.86 224.425 1378.76 218.087C1381.65 219.716 1384.52 221.362 1387.38 223.044C1387.31 223.188 1387.23 223.312 1387.16 223.474L1387.18 223.457ZM1359.86 229.68C1361.04 223.673 1362.25 217.686 1363.43 211.679C1363.59 210.89 1363.5 210.247 1363.27 209.685C1366.16 211.184 1369.04 212.718 1371.93 214.292C1369.59 221.171 1368.92 228.361 1370.01 235.533C1366.65 233.546 1363.26 231.595 1359.88 229.681L1359.86 229.68ZM1367.76 202.149C1364.74 200.528 1361.72 198.943 1358.67 197.413C1358.75 197.345 1358.85 197.279 1358.93 197.23C1360.24 197.92 1363.29 199.582 1367.76 202.149ZM1537.12 389.443C1499.38 333.285 1450.67 287.716 1395.07 251.14C1396.12 250.165 1396.59 248.655 1395.68 246.99C1392.19 240.621 1391.64 233.756 1394.06 226.996C1396.36 228.387 1398.66 229.798 1400.93 231.225C1400.41 237.83 1399.86 244.414 1399.34 251.019C1398.94 255.935 1406.58 256.587 1406.96 251.669C1407.33 247.143 1407.69 242.598 1408.06 238.072C1408.74 237.849 1409.35 237.472 1409.79 236.893C1469.91 276.133 1524.37 328.302 1560.65 387.679C1604.96 460.162 1629.29 550.142 1637.05 637.082C1616.97 549.819 1587.29 464.089 1537.14 389.463L1537.12 389.443ZM654.486 680.217C779.865 574.682 913.03 477.713 1043.45 378.567C1107.27 330.052 1171.19 281.676 1234.98 233.14C1301.6 182.436 1366.12 127.723 1435.4 80.6826C1437.93 78.9567 1440.99 76.0046 1443.97 75.1761C1452.33 72.8452 1462.45 78.8641 1467.6 87.0181C1466.42 86.4315 1464.98 86.4394 1463.69 87.562C1442.4 106.105 1420.2 123.505 1397.1 139.764C1393.07 142.595 1398.03 148.435 1402.04 145.621C1425.13 129.361 1447.31 111.96 1468.62 93.4189C1469.29 92.8406 1469.66 92.1814 1469.83 91.4863C1472.12 97.7149 1471.27 104.46 1464.82 109.457C1464.82 109.457 1464.8 109.493 1464.78 109.491C1439.21 125.949 1415.18 145.341 1390.72 163.37C1335.14 204.333 1279.72 245.496 1224.33 286.699C1088.86 387.468 953.594 488.517 818.912 590.343C774.003 624.316 729.007 658.206 684.686 692.956C675.297 700.318 666.161 707.999 656.891 715.501C656.589 715.756 656.268 716.008 655.965 716.281C655.872 714.312 655.514 712.376 654.926 710.514C680.827 687.827 706.731 665.12 732.614 642.431C736.329 639.181 731.393 633.324 727.679 636.574C702.22 658.889 676.742 681.202 651.281 703.535C647.939 699.14 643.039 695.939 637.222 694.938C642.152 689.475 648.995 684.81 654.488 680.199L654.486 680.217ZM631.202 703.745C637.161 702.871 642.019 705.471 644.716 709.549C643.279 711.724 644.721 714.518 646.859 715.299C647.221 718.057 646.745 721.005 645.237 723.79C644.028 724.172 642.759 724.381 641.42 724.304C639.473 724.792 637.528 725.261 635.581 725.749C634.115 718.413 632.65 711.078 631.202 703.745Z" fill="#F3F3F3"/>
<path d="M1380.07 159.826C1383.84 156.654 1378.92 150.799 1375.14 153.969C1373.41 155.428 1371.7 156.869 1369.96 158.328C1366.2 161.499 1371.12 167.355 1374.9 164.185C1376.63 162.726 1378.34 161.284 1380.07 159.826Z" fill="#F3F3F3"/>
<path d="M753.905 624.727C754.623 622.659 755.36 620.593 756.078 618.525C757.708 613.882 750.538 611.215 748.889 615.875C748.171 617.943 747.434 620.009 746.716 622.078C745.087 626.72 752.256 629.387 753.905 624.727Z" fill="#F3F3F3"/>
<path d="M1548.31 244.533C1601.53 315.181 1636.47 399.716 1644.89 487.982C1645.35 492.878 1652.88 491.467 1652.4 486.588C1643.85 397.021 1608.14 311.262 1554.15 239.596C1551.18 235.644 1545.34 240.6 1548.29 244.531L1548.31 244.533Z" fill="#191919"/>
<path d="M1526.71 215.548L1533.97 224.163C1537.14 227.926 1542.99 223.009 1539.82 219.227C1537.4 216.349 1534.97 213.471 1532.57 210.613C1529.39 206.849 1523.54 211.766 1526.71 215.548Z" fill="#191919"/>
</g>
<g clip-path="url(#clip1_511_104)">
<path d="M1090.23 734.158C1084.72 735.654 1079.39 734.967 1074.28 732.974C1072.77 733.27 1071.13 732.868 1069.93 731.326C1069.79 731.151 1069.68 730.955 1069.53 730.781C1059.43 725.289 1050.24 715.61 1042.18 709.16C1024.79 695.284 1007.12 681.731 989.479 668.176C855.742 565.529 720.558 464.762 585.478 363.892C520.739 315.545 456.208 266.788 391.295 218.586C392.09 220.685 391.619 223.489 389.058 224.79C309.891 265.121 240.744 320.943 190.897 395.073C130.984 484.161 100.958 589.761 81.2179 694.188C80.8594 696.124 79.5675 697.186 78.0859 697.555C76.3948 698.315 74.4129 698.073 73.2102 696.008C72.9593 695.693 72.7794 695.335 72.635 694.955C18.1233 596.614 45.6241 474.493 78.6185 373.498C111.318 273.424 163.813 179.026 246.132 111.606C230.227 91.0481 258.663 56.8596 282.669 67.8942C310.6 80.7246 336.597 107.056 360.693 125.535C431.725 180.016 502.756 234.497 574.059 288.656C726.445 404.361 879.775 519.089 1029.28 638.512C1048.78 654.095 1068.62 669.5 1087.07 686.33C1099.98 698.12 1116.61 726.985 1090.23 734.158ZM385.975 216.423C386.602 216.108 387.188 215.965 387.727 215.938C382.004 211.68 376.246 207.444 370.507 203.206C370.243 203.396 369.96 203.588 369.655 203.727C367 205.017 364.348 206.344 361.698 207.69C363.372 207.828 365.032 208.901 365.45 210.957C366.429 215.88 367.407 220.803 368.368 225.727C374.186 222.543 380.048 219.429 385.955 216.406L385.975 216.423ZM334.08 223.374C336.976 230.636 337.064 238.492 334.483 245.697C337.46 243.801 340.478 241.956 343.497 240.112C343.044 239.403 342.857 238.523 343.103 237.456C344.611 230.809 344.398 224.346 342.496 218.007C339.608 219.635 336.741 221.28 333.877 222.961C333.945 223.105 334.03 223.228 334.1 223.391L334.08 223.374ZM361.394 229.607C360.211 223.6 359.011 217.612 357.828 211.605C357.668 210.816 357.763 210.173 357.995 209.611C355.096 211.109 352.22 212.642 349.327 214.214C351.668 221.094 352.335 228.285 351.245 235.457C354.606 233.471 357.989 231.521 361.376 229.608L361.394 229.607ZM353.507 202.073C356.526 200.453 359.548 198.87 362.593 197.341C362.513 197.273 362.414 197.207 362.335 197.157C361.03 197.847 357.977 199.508 353.507 202.073ZM184.074 389.303C221.833 333.159 270.56 287.609 326.178 251.054C325.124 250.079 324.659 248.568 325.564 246.904C329.057 240.536 329.613 233.671 327.189 226.91C324.898 228.301 322.59 229.711 320.32 231.136C320.844 237.741 321.385 244.326 321.909 250.931C322.308 255.847 314.668 256.496 314.287 251.579C313.921 247.052 313.554 242.508 313.188 237.981C312.515 237.758 311.904 237.38 311.462 236.802C251.326 276.019 196.847 328.167 160.539 387.53C116.21 459.996 91.8418 549.967 84.045 636.904C104.161 549.648 133.878 463.93 184.057 389.323L184.074 389.303ZM1066.6 680.412C941.257 574.829 808.129 477.81 677.748 378.614C613.946 330.075 550.043 281.675 486.276 233.114C419.673 182.385 355.176 127.648 285.914 80.5812C283.376 78.8543 280.324 75.9011 277.339 75.0714C268.978 72.7374 258.862 78.7524 253.708 86.9045C254.891 86.3183 256.33 86.3268 257.621 87.4498C278.903 106 301.097 123.409 324.184 139.677C328.216 142.509 323.258 148.347 319.246 145.532C296.159 129.264 273.984 111.854 252.683 93.3049C252.018 92.7264 251.644 92.067 251.473 91.3718C249.182 97.5996 250.035 104.345 256.475 109.345C256.475 109.345 256.496 109.38 256.515 109.379C282.084 125.847 306.109 145.247 330.561 163.286C386.119 204.27 441.526 245.453 496.899 286.677C632.33 387.498 767.561 488.598 902.205 590.476C947.101 624.465 992.083 658.372 1036.39 693.14C1045.78 700.505 1054.91 708.19 1064.18 715.695C1064.48 715.95 1064.8 716.203 1065.1 716.476C1065.2 714.507 1065.56 712.571 1066.15 710.709C1040.25 688.012 1014.36 665.296 988.482 642.596C984.769 639.344 989.707 633.489 993.42 636.741C1018.87 659.066 1044.34 681.388 1069.79 703.731C1073.14 699.338 1078.04 696.138 1083.85 695.139C1078.93 689.675 1072.09 685.007 1066.59 680.393L1066.6 680.412ZM1089.87 703.948C1083.91 703.073 1079.05 705.671 1076.36 709.748C1077.79 711.923 1076.35 714.717 1074.21 715.496C1073.85 718.254 1074.32 721.203 1075.83 723.988C1077.04 724.371 1078.31 724.581 1079.65 724.504C1081.59 724.993 1083.54 725.462 1085.48 725.951C1086.95 718.616 1088.42 711.281 1089.87 703.948Z" fill="#F3F3F3"/>
<path d="M341.207 159.745C337.444 156.572 342.363 150.719 346.144 153.89C347.875 155.35 349.585 156.792 351.315 158.251C355.078 161.424 350.159 167.278 346.378 164.106C344.647 162.647 342.937 161.205 341.207 159.745Z" fill="#F3F3F3"/>
<path d="M967.198 624.885C966.481 622.816 965.745 620.749 965.027 618.681C963.4 614.038 970.57 611.374 972.217 616.034C972.935 618.102 973.671 620.169 974.388 622.238C976.016 626.881 968.846 629.545 967.198 624.885Z" fill="#F3F3F3"/>
<path d="M172.937 244.389C119.692 315.016 84.718 399.538 76.268 487.801C75.8062 492.697 68.2707 491.283 68.7527 486.404C77.335 396.841 113.082 311.095 167.1 239.449C170.07 235.499 175.908 240.456 172.955 244.387L172.937 244.389Z" fill="#191919"/>
<path d="M194.55 215.412L187.288 224.024C184.115 227.786 178.261 222.867 181.433 219.086C183.859 216.209 186.286 213.332 188.695 210.474C191.868 206.712 197.722 211.631 194.55 215.412Z" fill="#191919"/>
</g>
<defs>
<clipPath id="clip0_511_104">
<rect width="735.681" height="1047.05" fill="white" transform="translate(1721.31 89.0624) rotate(94.8795)"/>
</clipPath>
<clipPath id="clip1_511_104">
<rect width="735.681" height="1047.05" fill="white" transform="matrix(0.0846823 0.996408 0.996408 -0.0846823 0 88.8524)"/>
</clipPath>
</defs>
</svg>
