<svg width="1106" height="822" viewBox="0 0 1106 822" fill="none" xmlns="http://www.w3.org/2000/svg">
<g clip-path="url(#clip0_511_114)">
<path d="M1090.23 734.158C1084.72 735.654 1079.39 734.967 1074.28 732.974C1072.77 733.27 1071.13 732.868 1069.93 731.326C1069.79 731.151 1069.68 730.955 1069.53 730.781C1059.43 725.289 1050.24 715.61 1042.18 709.16C1024.79 695.284 1007.12 681.731 989.48 668.176C855.742 565.529 720.558 464.762 585.478 363.892C520.739 315.545 456.208 266.788 391.295 218.586C392.09 220.685 391.619 223.489 389.058 224.79C309.891 265.121 240.744 320.943 190.897 395.073C130.984 484.161 100.958 589.761 81.2179 694.188C80.8594 696.124 79.5675 697.186 78.0859 697.555C76.3948 698.315 74.4129 698.073 73.2102 696.008C72.9593 695.693 72.7794 695.335 72.635 694.955C18.1233 596.614 45.6241 474.493 78.6185 373.498C111.318 273.424 163.813 179.026 246.132 111.606C230.227 91.0481 258.663 56.8596 282.669 67.8942C310.6 80.7246 336.597 107.056 360.693 125.535C431.725 180.016 502.756 234.497 574.059 288.656C726.445 404.361 879.775 519.089 1029.28 638.512C1048.78 654.095 1068.62 669.5 1087.07 686.33C1099.98 698.12 1116.61 726.985 1090.23 734.158ZM385.975 216.423C386.602 216.108 387.188 215.965 387.727 215.938C382.004 211.68 376.246 207.444 370.507 203.206C370.243 203.396 369.96 203.588 369.655 203.727C367 205.017 364.348 206.344 361.698 207.69C363.372 207.828 365.032 208.901 365.45 210.957C366.429 215.88 367.407 220.803 368.368 225.727C374.186 222.543 380.048 219.429 385.955 216.406L385.975 216.423ZM334.08 223.374C336.976 230.636 337.064 238.492 334.483 245.697C337.46 243.801 340.478 241.956 343.497 240.112C343.044 239.403 342.857 238.523 343.103 237.456C344.611 230.809 344.398 224.346 342.496 218.007C339.608 219.635 336.741 221.28 333.877 222.961C333.945 223.105 334.03 223.228 334.1 223.391L334.08 223.374ZM361.394 229.607C360.211 223.6 359.011 217.612 357.828 211.605C357.668 210.816 357.763 210.173 357.995 209.611C355.096 211.109 352.22 212.642 349.327 214.214C351.668 221.094 352.335 228.285 351.245 235.457C354.606 233.471 357.989 231.521 361.376 229.608L361.394 229.607ZM353.507 202.073C356.526 200.453 359.548 198.87 362.593 197.341C362.513 197.273 362.414 197.207 362.335 197.157C361.03 197.847 357.977 199.508 353.507 202.073ZM184.074 389.303C221.833 333.159 270.56 287.609 326.178 251.054C325.124 250.079 324.659 248.568 325.564 246.904C329.057 240.536 329.613 233.671 327.189 226.91C324.898 228.301 322.59 229.711 320.32 231.136C320.844 237.741 321.385 244.326 321.909 250.931C322.308 255.847 314.668 256.496 314.287 251.579C313.921 247.052 313.554 242.508 313.188 237.981C312.515 237.758 311.904 237.38 311.462 236.802C251.326 276.019 196.847 328.166 160.539 387.53C116.21 459.996 91.8418 549.967 84.045 636.904C104.161 549.648 133.878 463.93 184.057 389.323L184.074 389.303ZM1066.6 680.412C941.257 574.829 808.129 477.81 677.748 378.614C613.946 330.075 550.043 281.675 486.276 233.114C419.673 182.385 355.176 127.648 285.914 80.5812C283.376 78.8543 280.324 75.9011 277.339 75.0714C268.978 72.7374 258.862 78.7524 253.708 86.9045C254.891 86.3183 256.33 86.3268 257.621 87.4498C278.903 106 301.097 123.409 324.184 139.677C328.216 142.509 323.258 148.347 319.246 145.532C296.159 129.264 273.984 111.854 252.683 93.3049C252.018 92.7264 251.644 92.067 251.473 91.3718C249.182 97.5996 250.035 104.345 256.475 109.345C256.475 109.345 256.496 109.38 256.515 109.379C282.084 125.847 306.109 145.247 330.561 163.286C386.119 204.27 441.526 245.453 496.899 286.677C632.33 387.498 767.561 488.598 902.205 590.476C947.101 624.465 992.083 658.372 1036.39 693.14C1045.78 700.505 1054.91 708.19 1064.18 715.695C1064.48 715.95 1064.8 716.203 1065.1 716.476C1065.2 714.507 1065.56 712.571 1066.14 710.709C1040.25 688.012 1014.36 665.296 988.482 642.596C984.769 639.344 989.707 633.489 993.42 636.741C1018.87 659.066 1044.34 681.388 1069.79 703.731C1073.14 699.338 1078.04 696.138 1083.85 695.139C1078.93 689.675 1072.09 685.007 1066.59 680.393L1066.6 680.412ZM1089.87 703.948C1083.91 703.073 1079.05 705.671 1076.36 709.748C1077.79 711.923 1076.35 714.717 1074.21 715.496C1073.85 718.254 1074.32 721.202 1075.83 723.988C1077.04 724.371 1078.31 724.581 1079.65 724.504C1081.59 724.993 1083.54 725.462 1085.48 725.951C1086.95 718.616 1088.42 711.281 1089.87 703.948Z" fill="#F3F3F3"/>
<path d="M341.207 159.745C337.444 156.572 342.363 150.719 346.144 153.89C347.875 155.35 349.585 156.792 351.315 158.251C355.078 161.424 350.159 167.278 346.378 164.106C344.647 162.647 342.937 161.205 341.207 159.745Z" fill="#F3F3F3"/>
<path d="M967.198 624.885C966.481 622.816 965.745 620.749 965.027 618.681C963.4 614.038 970.57 611.374 972.217 616.034C972.935 618.102 973.671 620.169 974.388 622.238C976.016 626.881 968.846 629.545 967.198 624.885Z" fill="#F3F3F3"/>
<path d="M172.937 244.389C119.692 315.016 84.718 399.538 76.268 487.801C75.8062 492.697 68.2707 491.283 68.7527 486.404C77.335 396.841 113.082 311.095 167.1 239.449C170.07 235.499 175.908 240.456 172.955 244.387L172.937 244.389Z" fill="#191919"/>
<path d="M194.55 215.412L187.288 224.024C184.115 227.786 178.261 222.867 181.433 219.086C183.859 216.209 186.286 213.332 188.695 210.474C191.868 206.712 197.722 211.631 194.55 215.412Z" fill="#191919"/>
</g>
<defs>
<clipPath id="clip0_511_114">
<rect width="735.681" height="1047.05" fill="white" transform="matrix(0.0846823 0.996408 0.996408 -0.0846823 0 88.8524)"/>
</clipPath>
</defs>
</svg>
