<svg width="1107" height="823" viewBox="0 0 1107 823" fill="none" xmlns="http://www.w3.org/2000/svg">
<g clip-path="url(#clip0_511_105)">
<path d="M15.8275 733.954C21.3405 735.452 26.6665 734.767 31.7863 732.776C33.2927 733.073 34.9333 732.671 36.1296 731.129C36.2753 730.955 36.3854 730.759 36.5311 730.584C46.6378 725.096 55.832 715.421 63.8914 708.974C81.2886 695.105 98.9572 681.558 116.607 668.01C250.384 565.415 385.606 464.698 520.725 363.88C585.482 315.557 650.031 266.824 714.962 218.647C714.166 220.746 714.637 223.551 717.197 224.852C796.349 265.213 865.475 321.062 915.294 395.211C975.173 484.322 1005.16 589.933 1024.86 694.367C1025.22 696.303 1026.51 697.366 1027.99 697.735C1029.68 698.496 1031.66 698.254 1032.87 696.19C1033.12 695.875 1033.3 695.517 1033.44 695.137C1087.99 596.817 1060.54 474.686 1027.58 373.678C994.919 273.591 942.46 179.174 860.166 111.722C876.079 91.1707 847.655 56.9714 823.646 67.9969C795.71 80.8166 769.703 107.138 745.6 125.608C674.547 180.062 603.495 234.516 532.172 288.648C379.742 404.295 226.368 518.965 76.8146 638.332C57.3104 653.907 37.4665 669.304 19.0138 686.128C6.09063 697.913 -10.5503 726.771 15.8275 733.954ZM720.283 216.486C719.656 216.171 719.071 216.028 718.531 216.001C724.256 211.745 730.015 207.511 735.756 203.275C736.02 203.466 736.303 203.658 736.609 203.796C739.263 205.087 741.914 206.416 744.563 207.763C742.889 207.9 741.229 208.972 740.81 211.029C739.83 215.951 738.849 220.873 737.887 225.797C732.07 222.611 726.209 219.495 720.303 216.469L720.283 216.486ZM772.176 223.457C769.277 230.718 769.185 238.574 771.764 245.78C768.788 243.882 765.77 242.037 762.753 240.192C763.205 239.483 763.393 238.603 763.147 237.536C761.642 230.888 761.857 224.425 763.762 218.087C766.649 219.716 769.515 221.362 772.379 223.044C772.311 223.188 772.226 223.312 772.156 223.474L772.176 223.457ZM744.859 229.68C746.044 223.673 747.246 217.686 748.432 211.679C748.592 210.89 748.498 210.247 748.266 209.685C751.164 211.184 754.04 212.718 756.932 214.292C754.589 221.171 753.919 228.361 755.006 235.533C751.646 233.546 748.263 231.595 744.878 229.681L744.859 229.68ZM752.757 202.149C749.739 200.528 746.717 198.943 743.672 197.413C743.753 197.345 743.852 197.279 743.931 197.23C745.235 197.92 748.288 199.582 752.757 202.149ZM922.118 389.443C884.381 333.285 835.671 287.716 780.067 251.14C781.122 250.165 781.587 248.655 780.683 246.99C777.192 240.621 776.639 233.756 779.065 226.996C781.356 228.387 783.664 229.798 785.933 231.225C785.406 237.83 784.863 244.414 784.336 251.019C783.935 255.935 791.575 256.587 791.958 251.669C792.325 247.143 792.695 242.598 793.063 238.072C793.735 237.849 794.347 237.472 794.788 236.893C854.909 276.133 909.369 328.302 945.655 387.679C989.956 460.162 1014.29 550.142 1022.05 637.082C1001.97 549.819 972.287 464.089 922.135 389.463L922.118 389.443ZM39.4861 680.217C164.865 574.682 298.03 477.713 428.449 378.567C492.269 330.052 556.19 281.676 619.976 233.14C686.598 182.436 751.116 127.723 820.396 80.6826C822.934 78.9567 825.988 76.0046 828.973 75.1761C837.334 72.8452 847.449 78.8641 852.599 87.0181C851.416 86.4315 849.977 86.4394 848.686 87.562C827.397 106.105 805.197 123.505 782.104 139.764C778.07 142.595 783.026 148.435 787.039 145.621C810.132 129.361 832.314 111.96 853.622 93.4189C854.288 92.8406 854.661 92.1814 854.833 91.4863C857.122 97.7149 856.266 104.46 849.824 109.457C849.824 109.457 849.803 109.493 849.784 109.491C824.209 125.949 800.176 145.341 775.718 163.37C720.144 204.333 664.721 245.496 609.333 286.699C473.863 387.468 338.594 488.517 203.912 590.343C159.003 624.316 114.007 658.206 69.6856 692.956C60.2968 700.318 51.1609 707.999 41.8908 715.501C41.5889 715.756 41.2684 716.008 40.9649 716.281C40.8715 714.312 40.5138 712.376 39.9256 710.514C65.8274 687.827 91.7309 665.12 117.614 642.431C121.329 639.181 116.393 633.324 112.679 636.574C87.2196 658.889 61.7419 681.202 36.2813 703.535C32.9394 699.14 28.0387 695.939 22.2216 694.938C27.1522 689.475 33.9946 684.81 39.4877 680.198L39.4861 680.217ZM16.2023 703.745C22.1607 702.871 27.0194 705.471 29.7159 709.549C28.2787 711.724 29.7214 714.518 31.8589 715.299C32.2212 718.057 31.7452 721.005 30.2373 723.79C29.0279 724.172 27.7586 724.381 26.4203 724.304C24.4734 724.792 22.5282 725.261 20.5813 725.749C19.1155 718.413 17.6496 711.078 16.2023 703.745Z" fill="#F3F3F3"/>
<path d="M765.073 159.826C768.837 156.654 763.92 150.799 760.138 153.969C758.407 155.428 756.696 156.869 754.965 158.328C751.201 161.499 756.118 167.355 759.901 164.185C761.631 162.726 763.342 161.284 765.073 159.826Z" fill="#F3F3F3"/>
<path d="M138.905 624.727C139.623 622.659 140.36 620.593 141.078 618.525C142.708 613.882 135.538 611.215 133.889 615.875C133.171 617.943 132.434 620.009 131.716 622.078C130.087 626.72 137.256 629.387 138.905 624.727Z" fill="#F3F3F3"/>
<path d="M933.311 244.533C986.529 315.181 1021.47 399.716 1029.89 487.982C1030.35 492.878 1037.88 491.467 1037.4 486.588C1028.85 397.021 993.14 311.262 939.149 239.596C936.181 235.644 930.341 240.6 933.293 244.531L933.311 244.533Z" fill="#191919"/>
<path d="M911.708 215.548L918.968 224.163C922.139 227.926 927.995 223.009 924.824 219.227C922.399 216.349 919.974 213.471 917.565 210.613C914.394 206.849 908.538 211.766 911.708 215.548Z" fill="#191919"/>
</g>
<defs>
<clipPath id="clip0_511_105">
<rect width="735.681" height="1047.05" fill="white" transform="translate(1106.31 89.0624) rotate(94.8795)"/>
</clipPath>
</defs>
</svg>
