<svg width="80" height="115" viewBox="0 0 80 115" fill="none" xmlns="http://www.w3.org/2000/svg">
<path d="M70.341 39.7132C74.0921 36.9928 76.8859 33.1549 78.3222 28.7493C79.7585 24.3438 79.7635 19.5967 78.3365 15.1882C76.9095 10.7796 74.1238 6.93582 70.3784 4.20751C66.633 1.47919 62.1202 0.00635503 57.4864 0H21.9536C17.3198 0.00635503 12.807 1.47919 9.06161 4.20751C5.31622 6.93582 2.53049 10.7796 1.10351 15.1882C-0.323471 19.5967 -0.318466 24.3438 1.11781 28.7493C2.55408 33.1549 5.34792 36.9928 9.09906 39.7132C6.28283 41.7414 3.98912 44.4101 2.40708 47.4991C0.82504 50.5882 0 54.009 0 57.4796C0 60.9502 0.82504 64.371 2.40708 67.4601C3.98912 70.5491 6.28283 73.2178 9.09906 75.246C6.05282 77.4474 3.62295 80.3941 2.04226 83.8039C0.461566 87.2137 -0.216976 90.9724 0.0716486 94.7196C0.360273 98.4669 1.60639 102.077 3.69061 105.205C5.77482 108.332 8.62729 110.872 11.9747 112.581C15.3221 114.29 19.0523 115.111 22.8078 114.964C26.5633 114.818 30.2184 113.71 33.4227 111.746C36.6271 109.782 39.2733 107.028 41.1079 103.747C42.9426 100.467 43.9041 96.7708 43.9003 93.0124V74.6712C46.1783 76.5933 48.824 78.0312 51.6759 78.8973C54.5279 79.7634 57.5264 80.0395 60.4885 79.7088C63.4507 79.3781 66.3144 78.4474 68.9051 76.9737C71.4958 75.4999 73.7592 73.5139 75.5571 71.1367C77.3551 68.7595 78.65 66.041 79.363 63.147C80.0759 60.2529 80.1918 57.244 79.7037 54.3037C79.2157 51.3634 78.1338 48.5533 76.5241 46.0448C74.9144 43.5363 72.8106 41.382 70.341 39.7132ZM71.0725 21.9468C71.0587 25.5458 69.6229 28.9935 67.078 31.5384C64.5331 34.0833 61.0854 35.5191 57.4864 35.5328H43.9003V8.36067H57.4864C61.0854 8.37443 64.5331 9.81024 67.078 12.3551C69.6229 14.9001 71.0587 18.3477 71.0725 21.9468ZM8.3675 21.9468C8.38126 18.3477 9.81707 14.9001 12.362 12.3551C14.9069 9.81024 18.3546 8.37443 21.9536 8.36067H35.5397V35.5328H21.9536C18.3546 35.5191 14.9069 34.0833 12.362 31.5384C9.81707 28.9935 8.38126 25.5458 8.3675 21.9468ZM8.3675 57.4796C8.38126 53.8806 9.81707 50.4329 12.362 47.888C14.9069 45.3431 18.3546 43.9073 21.9536 43.8935H35.5397V71.0657H21.9536C18.3546 71.0519 14.9069 69.6161 12.362 67.0712C9.81707 64.5263 8.38126 61.0786 8.3675 57.4796ZM21.9536 106.599C18.3503 106.599 14.8947 105.167 12.3468 102.619C9.79889 100.071 8.3675 96.6157 8.3675 93.0124C8.3675 89.4092 9.79889 85.9535 12.3468 83.4056C14.8947 80.8577 18.3503 79.4264 21.9536 79.4264H35.5397V93.0124C35.5259 96.6115 34.0901 100.059 31.5452 102.604C29.0003 105.149 25.5526 106.585 21.9536 106.599ZM57.4864 71.0657C53.8832 71.0657 50.4275 69.6343 47.8796 67.0864C45.3317 64.5385 43.9003 61.0829 43.9003 57.4796C43.9003 53.8763 45.3317 50.4207 47.8796 47.8728C50.4275 45.3249 53.8832 43.8935 57.4864 43.8935C61.0897 43.8935 64.5454 45.3249 67.0932 47.8728C69.6411 50.4207 71.0725 53.8763 71.0725 57.4796C71.0725 61.0829 69.6411 64.5385 67.0932 67.0864C64.5454 69.6343 61.0897 71.0657 57.4864 71.0657Z" fill="#FFC466"/>
</svg>
