<svg width="54" height="74" viewBox="0 0 54 74" fill="none" xmlns="http://www.w3.org/2000/svg">
<path d="M53.6667 59.3L29.3334 72.8C27.6667 73.6666 26 73.6666 24.3334 72.8L0.333374 59.3L43.8334 15.4666L45 15.1333C46 15.1333 46.5667 15.5666 46.6667 16.4666L53.6667 59.3ZM18.1667 16.1333L3.00004 41.3L9.33337 1.46663C9.43337 0.566634 10 0.133301 11 0.133301C11.6667 0.133301 12.1 0.333301 12.3334 0.966634L19.5 14.1333L18.1667 16.1333ZM33.1667 20.3333L1.33337 52.3L25.5 11.3C25.8334 10.6333 26.3334 10.3333 27 10.3333C27.6667 10.3333 28.1 10.6333 28.3334 11.3L33.1667 20.3333Z" fill="#FFC466"/>
</svg>
