<svg width="35" height="26" viewBox="0 0 35 26" fill="none" xmlns="http://www.w3.org/2000/svg">
<path d="M30.3555 3.26834C29.0482 1.08945 26.6514 0 24.0367 0H10.9633C8.34863 0 5.95185 1.08945 4.64451 3.26834C-0.366953 10.8945 -1.4564 22.4426 2.02983 24.8394C5.51607 27.2362 13.3601 16.7775 17.5 16.7775C21.6399 16.7775 29.266 27.2362 32.9702 24.8394C36.4564 22.4426 35.367 10.8945 30.3555 3.26834ZM13.1422 10.8945H10.9633V13.0734H8.78441V10.8945H6.60552V8.71559H8.78441V6.53669H10.9633V8.71559H13.1422V10.8945ZM24.9082 11.9839C24.9082 13.0734 24.0367 13.9449 22.9472 13.9449C21.8578 13.9449 20.9862 13.0734 20.9862 11.9839C20.9862 10.8945 21.8578 10.0229 22.9472 10.0229C24.0367 10.0229 24.9082 10.8945 24.9082 11.9839ZM29.0482 7.62614C29.0482 8.71559 28.1766 9.58714 27.0871 9.58714C25.9977 9.58714 25.1261 8.71559 25.1261 7.62614C25.1261 6.53669 25.9977 5.66513 27.0871 5.66513C28.1766 5.66513 29.0482 6.53669 29.0482 7.62614Z" fill="#FFC466"/>
</svg>
