<svg width="80" height="79" viewBox="0 0 80 79" fill="none" xmlns="http://www.w3.org/2000/svg">
<path d="M40 0C17.9 0 5.83817e-06 17.9 5.83817e-06 40C-0.00453104 48.3971 2.63526 56.5824 7.54487 63.3947C12.4545 70.207 19.3846 75.3003 27.352 77.952C29.352 78.3 30.1 77.1 30.1 76.048C30.1 75.1 30.048 71.952 30.048 68.6C20 70.452 17.4 66.152 16.6 63.9C16.148 62.748 14.2 59.2 12.5 58.248C11.1 57.5 9.1 55.648 12.448 55.6C15.6 55.548 17.848 58.5 18.6 59.7C22.2 65.748 27.952 64.048 30.248 63C30.6 60.4 31.648 58.652 32.8 57.652C23.9 56.652 14.6 53.2 14.6 37.9C14.6 33.548 16.148 29.952 18.7 27.148C18.3 26.148 16.9 22.048 19.1 16.548C19.1 16.548 22.448 15.5 30.1 20.652C33.3563 19.7482 36.7207 19.2934 40.1 19.3C43.5 19.3 46.9 19.748 50.1 20.648C57.748 15.448 61.1 16.552 61.1 16.552C63.3 22.052 61.9 26.152 61.5 27.152C64.048 29.952 65.6 33.5 65.6 37.9C65.6 53.252 56.252 56.652 47.352 57.652C48.8 58.9 50.052 61.3 50.052 65.052C50.052 70.4 50 74.7 50 76.052C50 77.1 50.752 78.348 52.752 77.948C60.6921 75.2672 67.5917 70.164 72.4796 63.3566C77.3675 56.5492 79.9977 48.3805 80 40C80 17.9 62.1 0 40 0Z" fill="#FFC466"/>
</svg>
