<svg width="80" height="80" viewBox="0 0 80 80" fill="none" xmlns="http://www.w3.org/2000/svg">
<path d="M0 0H80V80H0V0ZM21.0222 66.8445C22.8 70.6222 26.3111 73.7333 32.3111 73.7333C38.9778 73.7333 43.5556 70.1778 43.5556 62.4V36.7111H36V62.2222C36 66.0444 34.4444 67.0222 32 67.0222C29.4222 67.0222 28.3556 65.2444 27.1556 63.1556L21.0222 66.8445ZM47.6 66.0445C49.8222 70.4 54.3111 73.7333 61.3333 73.7333C68.4444 73.7333 73.7778 70.0444 73.7778 63.2444C73.7778 56.9778 70.1778 54.1778 63.7778 51.4222L61.9111 50.6222C58.6667 49.2444 57.2889 48.3111 57.2889 46.0889C57.2889 44.2667 58.6667 42.8444 60.8889 42.8444C63.0222 42.8444 64.4445 43.7778 65.7333 46.0889L71.5556 42.2222C69.1111 37.9556 65.6445 36.3111 60.8889 36.3111C54.1778 36.3111 49.8667 40.5778 49.8667 46.2222C49.8667 52.3556 53.4667 55.2444 58.8889 57.5556L60.7556 58.3556C64.2222 59.8667 66.2667 60.8 66.2667 63.3778C66.2667 65.5111 64.2667 67.0667 61.1556 67.0667C57.4667 67.0667 55.3333 65.1556 53.7333 62.4889L47.6 66.0445Z" fill="#FFC466"/>
</svg>
