<svg width="80" height="80" viewBox="0 0 80 80" fill="none" xmlns="http://www.w3.org/2000/svg">
<path d="M37.38 0.0204167C37.2067 0.0370833 36.66 0.09375 36.1667 0.130417C24.8067 1.15708 14.1667 7.28708 7.42 16.7104C3.69434 21.8828 1.2724 27.8782 0.36 34.1871C0.04 36.3871 0 37.0337 0 40.0137C0 42.9937 0.04 43.6437 0.36 45.8404C2.53333 60.8637 13.2267 73.4838 27.7233 78.1604C30.32 78.9971 33.0567 79.5671 36.1667 79.9138C37.38 80.0471 42.62 80.0471 43.8333 79.9138C49.2033 79.3171 53.7567 77.9871 58.2433 75.6971C58.9333 75.3471 59.0667 75.2504 58.9733 75.1738C56.7787 72.2795 54.6064 69.3683 52.4567 66.4404L46.06 57.7971L38.0467 45.9337C35.3804 41.9658 32.6892 38.0146 29.9733 34.0804C29.9433 34.0704 29.9133 39.3404 29.8967 45.7804C29.8733 57.0471 29.8633 57.5004 29.7233 57.7671C29.5868 58.0783 29.3431 58.3302 29.0367 58.4771C28.7867 58.6037 28.57 58.6271 27.3867 58.6271H26.0333L25.6733 58.4004C25.4506 58.2598 25.2698 58.0617 25.15 57.8271L24.9833 57.4771L25 41.7971L25.0233 26.1104L25.2667 25.8037C25.4305 25.612 25.6268 25.4507 25.8467 25.3271C26.1667 25.1704 26.29 25.1571 27.6467 25.1571C29.24 25.1571 29.5067 25.2171 29.92 25.6704C30.0367 25.7971 34.3767 32.3371 39.57 40.2104L55.35 64.1171L61.6833 73.7104L62.0067 73.5004C65.0547 71.474 67.818 69.0492 70.2233 66.2904C75.2639 60.5214 78.5334 53.4209 79.64 45.8404C79.96 43.6404 80 42.9937 80 40.0137C80 37.0337 79.96 36.3871 79.64 34.1871C77.4667 19.1671 66.7733 6.54375 52.2767 1.86708C49.5673 1.00565 46.7774 0.421541 43.95 0.12375C43.1967 0.04375 38.03 -0.0429167 37.3833 0.02375L37.38 0.0204167ZM53.7567 24.2204C53.9426 24.314 54.1081 24.4435 54.2437 24.6014C54.3792 24.7593 54.4822 24.9425 54.5467 25.1404C54.6067 25.3404 54.6233 29.6904 54.6067 39.4904L54.5833 53.5504L52.1067 49.7504L49.62 45.9504V35.7304C49.62 29.1204 49.65 25.4071 49.6967 25.2271C49.7522 25.0189 49.8493 24.8241 49.9822 24.6545C50.1151 24.4849 50.2811 24.344 50.47 24.2404C50.7933 24.0737 50.91 24.0604 52.1367 24.0604C53.2933 24.0604 53.4967 24.0804 53.7567 24.2204Z" fill="#FFC466"/>
</svg>
