<svg width="80" height="72" viewBox="0 0 80 72" fill="none" xmlns="http://www.w3.org/2000/svg">
<path d="M40 28.7517C43.8326 28.7517 46.9581 31.8773 46.9581 35.7843C46.9581 39.5052 43.8326 42.668 40 42.668C36.1674 42.668 33.0419 39.5052 33.0419 35.7843C33.0419 31.8773 36.1674 28.7517 40 28.7517ZM22.7721 65.5517C25.1163 66.9657 30.2512 64.8076 36.1674 59.2262C34.2326 57.0308 32.3349 54.6494 30.5488 52.1564C27.5503 51.8694 24.5693 51.4223 21.6186 50.8169C19.7209 58.7797 20.4279 64.2494 22.7721 65.5517ZM25.414 44.1936L24.3349 42.2959C23.9256 43.375 23.5163 44.4541 23.2558 45.4959C24.2605 45.7192 25.3767 45.9052 26.5302 46.0913L25.414 44.1936ZM49.7488 41.3657L52.7628 35.7843L49.7488 30.2029C48.6326 28.2308 47.4419 26.482 46.3628 24.7331C44.3535 24.6215 42.2326 24.6215 40 24.6215C37.7674 24.6215 35.6465 24.6215 33.6372 24.7331C32.5581 26.482 31.3674 28.2308 30.2512 30.2029L27.2372 35.7843L30.2512 41.3657C31.3674 43.3378 32.5581 45.0866 33.6372 46.8355C35.6465 46.9471 37.7674 46.9471 40 46.9471C42.2326 46.9471 44.3535 46.9471 46.3628 46.8355C47.4419 45.0866 48.6326 43.3378 49.7488 41.3657ZM40 16.3611C39.293 17.1797 38.5488 18.0355 37.8047 19.0401H42.1954C41.4512 18.0355 40.707 17.1797 40 16.3611ZM40 55.2076C40.707 54.389 41.4512 53.5331 42.1954 52.5285H37.8047C38.5488 53.5331 39.293 54.389 40 55.2076ZM57.1907 6.01687C54.8837 4.60291 49.7488 6.76105 43.8326 12.3424C45.7674 14.5378 47.6651 16.9192 49.4512 19.4122C52.5023 19.7099 55.5163 20.1564 58.3814 20.7517C60.2791 12.789 59.5721 7.31919 57.1907 6.01687ZM54.586 27.375L55.6651 29.2727C56.0744 28.1936 56.4837 27.1145 56.7442 26.0727C55.7395 25.8494 54.6233 25.6634 53.4698 25.4773L54.586 27.375ZM59.9814 1.14245C65.4512 4.26803 66.0465 12.4913 63.7395 22.0913C73.1907 24.882 80 29.4959 80 35.7843C80 42.0727 73.1907 46.6866 63.7395 49.4773C66.0465 59.0773 65.4512 67.3006 59.9814 70.4262C54.5488 73.5517 47.1442 69.9797 40 63.1704C32.8558 69.9797 25.4512 73.5517 19.9814 70.4262C14.5488 67.3006 13.9535 59.0773 16.2605 49.4773C6.8093 46.6866 0 42.0727 0 35.7843C0 29.4959 6.8093 24.882 16.2605 22.0913C13.9535 12.4913 14.5488 4.26803 19.9814 1.14245C25.4512 -1.98313 32.8558 1.58896 40 8.39826C47.1442 1.58896 54.5488 -1.98313 59.9814 1.14245ZM58.9023 35.7843C60.1674 38.575 61.2837 41.3657 62.214 44.1936C70.0279 41.8494 74.4186 38.5006 74.4186 35.7843C74.4186 33.068 70.0279 29.7192 62.214 27.375C61.2837 30.2029 60.1674 32.9936 58.9023 35.7843ZM21.0977 35.7843C19.8326 32.9936 18.7163 30.2029 17.786 27.375C9.97209 29.7192 5.5814 33.068 5.5814 35.7843C5.5814 38.5006 9.97209 41.8494 17.786 44.1936C18.7163 41.3657 19.8326 38.575 21.0977 35.7843ZM54.586 44.1936L53.4698 46.0913C54.6233 45.9052 55.7395 45.7192 56.7442 45.4959C56.4837 44.4541 56.0744 43.375 55.6651 42.2959L54.586 44.1936ZM43.8326 59.2262C49.7488 64.8076 54.8837 66.9657 57.1907 65.5517C59.5721 64.2494 60.2791 58.7797 58.3814 50.8169C55.5163 51.4122 52.5023 51.8587 49.4512 52.1564C47.6651 54.6494 45.7674 57.0308 43.8326 59.2262ZM25.414 27.375L26.5302 25.4773C25.3767 25.6634 24.2605 25.8494 23.2558 26.0727C23.5163 27.1145 23.9256 28.1936 24.3349 29.2727L25.414 27.375ZM36.1674 12.3424C30.2512 6.76105 25.1163 4.60291 22.7721 6.01687C20.4279 7.31919 19.7209 12.789 21.6186 20.7517C24.5693 20.1463 27.5503 19.6992 30.5488 19.4122C32.3349 16.9192 34.2326 14.5378 36.1674 12.3424Z" fill="#FFC466"/>
</svg>
