<svg width="80" height="48" viewBox="0 0 80 48" fill="none" xmlns="http://www.w3.org/2000/svg">
<path d="M40 0C29.32 0 22.68 5.32 20 16C24 10.68 28.68 8.68 34 10C37.04 10.76 39.24 12.96 41.64 15.4C45.56 19.4 50 24 60 24C70.68 24 77.32 18.68 80 8C76 13.32 71.32 15.32 66 14C62.96 13.24 60.8 11.04 58.36 8.6C54.44 4.6 50 0 40 0ZM20 24C9.32 24 2.68 29.32 0 40C4 34.68 8.68 32.68 14 34C17.04 34.76 19.2 36.96 21.64 39.4C25.56 43.4 30 48 40 48C50.68 48 57.32 42.68 60 32C56 37.32 51.32 39.32 46 38C42.96 37.24 40.8 35.04 38.36 32.6C34.44 28.6 30 24 20 24Z" fill="#FFC466"/>
</svg>
