<svg width="80" height="80" viewBox="0 0 80 80" fill="none" xmlns="http://www.w3.org/2000/svg">
<mask id="mask0_504_83" style="mask-type:luminance" maskUnits="userSpaceOnUse" x="0" y="0" width="80" height="80">
<path d="M0 0H80V80H0V0Z" fill="white"/>
</mask>
<g mask="url(#mask0_504_83)">
<path d="M0.760254 27.9007C0.760254 27.9007 -1.18641 26.4773 1.15025 24.584L6.60025 19.6573C6.60025 19.6573 8.15692 18.0007 9.80692 19.444L60.0769 57.9173V76.364C60.0769 76.364 60.0536 79.264 56.3769 78.944L0.756921 27.8973L0.760254 27.9007Z" fill="#FFC466"/>
<path d="M13.7201 39.79L0.760073 51.6967C0.760073 51.6967 -0.57326 52.6967 0.760073 54.4867L6.77674 60.02C6.77674 60.02 8.20674 61.57 10.3167 59.8034L24.0534 49.2767L13.7201 39.79ZM36.4667 39.8867L60.2334 21.5467L60.0767 3.19669C60.0767 3.19669 59.0601 -0.809979 55.6767 1.27669L24.0534 30.3667L36.4667 39.8867Z" fill="#FFC466"/>
<path d="M56.3737 78.9668C57.7537 80.3935 59.427 79.9268 59.427 79.9268L77.947 70.7035C80.317 69.0702 79.9837 67.0435 79.9837 67.0435V11.9602C79.9837 9.54016 77.5337 8.7035 77.5337 8.7035L61.4803 0.880162C57.9737 -1.30984 55.677 1.27683 55.677 1.27683C55.677 1.27683 58.6303 -0.873172 60.077 3.19683V76.0302C60.077 76.5302 59.9703 77.0202 59.7603 77.4635C59.337 78.3268 58.4203 79.1302 56.2203 78.7968L56.3737 78.9668Z" fill="#FFC466"/>
</g>
</svg>
